<svg width="145" height="145" viewBox="0 0 145 145" fill="none" xmlns="http://www.w3.org/2000/svg">
<rect width="145" height="145" fill="white" style="fill:white;fill-opacity:1;"/>
<mask id="mask0_293_556" style="mask-type:alpha" maskUnits="userSpaceOnUse" x="34" y="33" width="78" height="78">
<rect x="34" y="33" width="78" height="78" fill="#D9D9D9" style="fill:#D9D9D9;fill:color(display-p3 0.8510 0.8510 0.8510);fill-opacity:1;"/>
</mask>
<g mask="url(#mask0_293_556)">
<path d="M73 91.5C80.2583 91.5 86.4063 88.9677 91.4438 83.9031C96.4813 78.8385 99 72.7042 99 65.5C99 63.8208 98.8646 62.2094 98.5938 60.6656C98.3229 59.1219 97.8896 57.6187 97.2938 56.1562C95.8313 57.0771 94.2875 57.7812 92.6625 58.2688C91.0375 58.7563 89.3583 59 87.625 59C84.7 59 81.951 58.3365 79.3781 57.0094C76.8052 55.6823 74.6792 53.8 73 51.3625C71.3208 53.8 69.1948 55.6823 66.6219 57.0094C64.049 58.3365 61.3 59 58.375 59C56.6417 59 54.9625 58.7563 53.3375 58.2688C51.7125 57.7812 50.1688 57.0771 48.7063 56.1562C48.1104 57.6187 47.6771 59.1219 47.4063 60.6656C47.1354 62.2094 47 63.8208 47 65.5C47 72.7042 49.5323 78.8385 54.5969 83.9031C59.6615 88.9677 65.7958 91.5 73 91.5ZM63.25 72.8125C64.3875 72.8125 65.349 72.4198 66.1344 71.6344C66.9198 70.849 67.3125 69.8875 67.3125 68.75C67.3125 67.6125 66.9198 66.651 66.1344 65.8656C65.349 65.0802 64.3875 64.6875 63.25 64.6875C62.1125 64.6875 61.1511 65.0802 60.3656 65.8656C59.5802 66.651 59.1875 67.6125 59.1875 68.75C59.1875 69.8875 59.5802 70.849 60.3656 71.6344C61.1511 72.4198 62.1125 72.8125 63.25 72.8125ZM82.75 72.8125C83.8875 72.8125 84.849 72.4198 85.6344 71.6344C86.4198 70.849 86.8125 69.8875 86.8125 68.75C86.8125 67.6125 86.4198 66.651 85.6344 65.8656C84.849 65.0802 83.8875 64.6875 82.75 64.6875C81.6125 64.6875 80.651 65.0802 79.8656 65.8656C79.0802 66.651 78.6875 67.6125 78.6875 68.75C78.6875 69.8875 79.0802 70.849 79.8656 71.6344C80.651 72.4198 81.6125 72.8125 82.75 72.8125ZM58.375 52.5C61.5167 52.5 64.1979 51.3896 66.4188 49.1687C68.6396 46.9479 69.75 44.2667 69.75 41.125V39.6625C66.0667 40.0958 62.6813 41.2604 59.5938 43.1562C56.5063 45.0521 53.9333 47.4625 51.875 50.3875C52.85 51.0375 53.8792 51.5521 54.9625 51.9313C56.0458 52.3104 57.1833 52.5 58.375 52.5ZM87.625 52.5C88.8167 52.5 89.9542 52.324 91.0375 51.9719C92.1208 51.6198 93.15 51.0917 94.125 50.3875C92.0667 47.4625 89.5073 45.0521 86.4469 43.1562C83.3865 41.2604 79.9875 40.0958 76.25 39.6625V41.125C76.25 44.2667 77.3604 46.9479 79.5813 49.1687C81.8021 51.3896 84.4833 52.5 87.625 52.5ZM41.15 104.5C39.2542 104.5 37.6563 103.796 36.3563 102.388C35.0563 100.979 34.4875 99.3271 34.65 97.4313L37.575 65.3375C38.0083 60.7875 39.2406 56.5354 41.2719 52.5813C43.3031 48.6271 45.9031 45.201 49.0719 42.3031C52.2406 39.4052 55.8698 37.1302 59.9594 35.4781C64.049 33.826 68.3958 33 73 33C77.6042 33 81.951 33.826 86.0406 35.4781C90.1302 37.1302 93.7594 39.4052 96.9281 42.3031C100.097 45.201 102.697 48.6271 104.728 52.5813C106.759 56.5354 107.992 60.7875 108.425 65.3375L111.35 97.4313C111.513 99.3271 110.944 100.979 109.644 102.388C108.344 103.796 106.746 104.5 104.85 104.5H41.15ZM73 98C66.2292 98 60.1354 96.1177 54.7188 92.3531C49.3021 88.5885 45.375 83.7542 42.9375 77.85L41.15 98H104.85L103.063 77.85C100.625 83.7542 96.7115 88.5885 91.3219 92.3531C85.9323 96.1177 79.825 98 73 98ZM73 98H104.85H41.15H73Z" fill="#3D348B" style="fill:#3D348B;fill:color(display-p3 0.2392 0.2039 0.5451);fill-opacity:1;"/>
</g>
</svg>
