<svg width="145" height="145" viewBox="0 0 145 145" fill="none" xmlns="http://www.w3.org/2000/svg">
<rect width="145" height="145" fill="white" style="fill:white;fill-opacity:1;"/>
<mask id="mask0_293_561" style="mask-type:alpha" maskUnits="userSpaceOnUse" x="34" y="33" width="78" height="78">
<rect x="34" y="33" width="78" height="78" fill="#D9D9D9" style="fill:#D9D9D9;fill:color(display-p3 0.8510 0.8510 0.8510);fill-opacity:1;"/>
</mask>
<g mask="url(#mask0_293_561)">
<path d="M73.0001 107.75C71.7543 107.75 70.5084 107.669 69.2626 107.506C68.0168 107.344 66.7709 107.127 65.5251 106.856C60.7584 110.377 55.5178 111.636 49.8032 110.634C44.0887 109.632 39.7147 106.585 36.6814 101.494C34.2439 97.4854 33.4584 93.1792 34.3251 88.575C35.1918 83.9708 37.2772 80.0979 40.5814 76.9563V76.7125C37.223 73.625 35.1376 69.8198 34.3251 65.2969C33.5126 60.774 34.2709 56.5083 36.6001 52.5C38.6043 49.0875 41.3668 46.501 44.8876 44.7406C48.4084 42.9802 52.1189 42.3708 56.0189 42.9125C57.7522 39.825 60.122 37.401 63.1282 35.6406C66.1345 33.8802 69.4251 33 73.0001 33C76.5751 33 79.8657 33.8802 82.872 35.6406C85.8782 37.401 88.248 39.825 89.9814 42.9125C93.8814 42.3708 97.5918 42.9802 101.113 44.7406C104.633 46.501 107.396 49.0875 109.4 52.5C111.729 56.5083 112.488 60.774 111.675 65.2969C110.863 69.8198 108.777 73.625 105.419 76.7125V76.9563C108.723 80.0979 110.808 83.9708 111.675 88.575C112.542 93.1792 111.756 97.4854 109.319 101.494C106.286 106.585 101.912 109.632 96.197 110.634C90.4824 111.636 85.2418 110.377 80.4751 106.856C79.2293 107.127 77.9834 107.344 76.7376 107.506C75.4918 107.669 74.2459 107.75 73.0001 107.75ZM57.4001 103.688C55.6668 102.713 54.0147 101.589 52.4439 100.316C50.873 99.0427 49.4376 97.6479 48.1376 96.1313C46.8376 94.6146 45.6866 92.976 44.6845 91.2156C43.6824 89.4552 42.8564 87.6271 42.2064 85.7313C41.123 87.6813 40.5814 89.7531 40.5814 91.9469C40.5814 94.1406 41.1501 96.1854 42.2876 98.0812C43.8584 100.681 46.0657 102.536 48.9095 103.647C51.7532 104.757 54.5834 104.771 57.4001 103.688ZM88.6001 103.688C91.4168 104.771 94.247 104.757 97.0907 103.647C99.9345 102.536 102.142 100.681 103.713 98.0812C104.85 96.1854 105.419 94.1406 105.419 91.9469C105.419 89.7531 104.877 87.6813 103.794 85.7313C103.144 87.6271 102.318 89.4552 101.316 91.2156C100.314 92.976 99.1626 94.6146 97.8626 96.1313C96.5626 97.6479 95.1407 99.0427 93.597 100.316C92.0532 101.589 90.3876 102.713 88.6001 103.688ZM73.0001 101.25C80.2584 101.25 86.4064 98.7313 91.4439 93.6938C96.4814 88.6563 99.0001 82.5083 99.0001 75.25C99.0001 73.6792 98.8782 72.176 98.6345 70.7406C98.3907 69.3052 98.0251 67.9104 97.5376 66.5562C95.9668 67.6396 94.2334 68.4792 92.3376 69.075C90.4418 69.6708 88.4647 69.9688 86.4064 69.9688C80.8814 69.9688 76.1824 68.0323 72.3095 64.1594C68.4366 60.2865 66.5001 55.5875 66.5001 50.0625C60.8668 51.4708 56.2084 54.5042 52.5251 59.1625C48.8418 63.8208 47.0001 69.1833 47.0001 75.25C47.0001 82.5083 49.5189 88.6563 54.5564 93.6938C59.5939 98.7313 65.7418 101.25 73.0001 101.25ZM63.2501 82.5625C62.1126 82.5625 61.1512 82.1698 60.3657 81.3844C59.5803 80.599 59.1876 79.6375 59.1876 78.5C59.1876 77.3625 59.5803 76.401 60.3657 75.6156C61.1512 74.8302 62.1126 74.4375 63.2501 74.4375C64.3876 74.4375 65.3491 74.8302 66.1345 75.6156C66.9199 76.401 67.3126 77.3625 67.3126 78.5C67.3126 79.6375 66.9199 80.599 66.1345 81.3844C65.3491 82.1698 64.3876 82.5625 63.2501 82.5625ZM82.7501 82.5625C81.6126 82.5625 80.6512 82.1698 79.8657 81.3844C79.0803 80.599 78.6876 79.6375 78.6876 78.5C78.6876 77.3625 79.0803 76.401 79.8657 75.6156C80.6512 74.8302 81.6126 74.4375 82.7501 74.4375C83.8876 74.4375 84.8491 74.8302 85.6345 75.6156C86.4199 76.401 86.8126 77.3625 86.8126 78.5C86.8126 79.6375 86.4199 80.599 85.6345 81.3844C84.8491 82.1698 83.8876 82.5625 82.7501 82.5625ZM41.6376 66.8C42.1251 65.0125 42.748 63.2927 43.5064 61.6406C44.2647 59.9885 45.1584 58.4312 46.1876 56.9688C47.2168 55.5063 48.3407 54.125 49.5595 52.825C50.7782 51.525 52.0918 50.3333 53.5001 49.25C51.1709 49.25 49.0178 49.8188 47.0407 50.9563C45.0637 52.0938 43.4793 53.6646 42.2876 55.6687C41.2043 57.4021 40.6084 59.2167 40.5001 61.1125C40.3918 63.0083 40.7709 64.9042 41.6376 66.8ZM104.363 66.8C105.229 64.9042 105.608 63.0083 105.5 61.1125C105.392 59.2167 104.796 57.4021 103.713 55.6687C102.521 53.6646 100.937 52.0938 98.9595 50.9563C96.9824 49.8188 94.8293 49.25 92.5001 49.25C93.9085 50.3333 95.222 51.525 96.4407 52.825C97.6595 54.125 98.7834 55.5063 99.8126 56.9688C100.842 58.4312 101.736 59.9885 102.494 61.6406C103.252 63.2927 103.875 65.0125 104.363 66.8ZM86.4064 63.4688C87.9772 63.4688 89.4397 63.225 90.7939 62.7375C92.148 62.25 93.3939 61.5729 94.5314 60.7063C93.3939 58.9729 92.0397 57.4156 90.4689 56.0344C88.898 54.6531 87.1918 53.4479 85.3501 52.4187C83.5084 51.3896 81.5584 50.6042 79.5001 50.0625C77.4418 49.5208 75.2751 49.25 73.0001 49.25V50.0625C73.0001 53.8 74.3001 56.9688 76.9001 59.5688C79.5001 62.1688 82.6689 63.4688 86.4064 63.4688ZM82.0189 44.05C80.9355 42.6417 79.6084 41.5312 78.0376 40.7188C76.4668 39.9062 74.7876 39.5 73.0001 39.5C71.2126 39.5 69.5334 39.9062 67.9626 40.7188C66.3918 41.5312 65.0647 42.6417 63.9814 44.05C65.3897 43.6167 66.8522 43.2917 68.3689 43.075C69.8855 42.8583 71.4293 42.75 73.0001 42.75C74.5709 42.75 76.1147 42.8583 77.6314 43.075C79.148 43.2917 80.6105 43.6167 82.0189 44.05Z" fill="#3D348B" style="fill:#3D348B;fill:color(display-p3 0.2392 0.2039 0.5451);fill-opacity:1;"/>
</g>
</svg>
