<svg width="145" height="145" viewBox="0 0 145 145" fill="none" xmlns="http://www.w3.org/2000/svg">
<rect width="145" height="145" fill="white" style="fill:white;fill-opacity:1;"/>
<mask id="mask0_284_351" style="mask-type:alpha" maskUnits="userSpaceOnUse" x="34" y="33" width="78" height="78">
<rect x="34" y="33" width="78" height="78" fill="#D9D9D9" style="fill:#D9D9D9;fill:color(display-p3 0.8510 0.8510 0.8510);fill-opacity:1;"/>
</mask>
<g mask="url(#mask0_284_351)">
<path d="M63.2499 79.3126C62.1124 79.3126 61.1509 78.9199 60.3655 78.1344C59.5801 77.349 59.1874 76.3876 59.1874 75.2501C59.1874 74.1126 59.5801 73.1511 60.3655 72.3657C61.1509 71.5803 62.1124 71.1876 63.2499 71.1876C64.3874 71.1876 65.3488 71.5803 66.1343 72.3657C66.9197 73.1511 67.3124 74.1126 67.3124 75.2501C67.3124 76.3876 66.9197 77.349 66.1343 78.1344C65.3488 78.9199 64.3874 79.3126 63.2499 79.3126ZM82.7499 79.3126C81.6124 79.3126 80.6509 78.9199 79.8655 78.1344C79.0801 77.349 78.6874 76.3876 78.6874 75.2501C78.6874 74.1126 79.0801 73.1511 79.8655 72.3657C80.6509 71.5803 81.6124 71.1876 82.7499 71.1876C83.8874 71.1876 84.8488 71.5803 85.6343 72.3657C86.4197 73.1511 86.8124 74.1126 86.8124 75.2501C86.8124 76.3876 86.4197 77.349 85.6343 78.1344C84.8488 78.9199 83.8874 79.3126 82.7499 79.3126ZM72.9999 98.0001C80.2582 98.0001 86.4061 95.4813 91.4436 90.4438C96.4811 85.4063 98.9999 79.2584 98.9999 72.0001C98.9999 70.7001 98.9186 69.4407 98.7561 68.2219C98.5936 67.0032 98.2957 65.8251 97.8624 64.6876C96.7249 64.9584 95.5874 65.1615 94.4499 65.2969C93.3124 65.4324 92.1207 65.5001 90.8749 65.5001C85.9457 65.5001 81.2874 64.4438 76.8999 62.3313C72.5124 60.2188 68.7749 57.2667 65.6874 53.4751C63.954 57.7001 61.4759 61.3699 58.253 64.4844C55.0301 67.599 51.279 69.9417 46.9999 71.5126V72.0001C46.9999 79.2584 49.5186 85.4063 54.5561 90.4438C59.5936 95.4813 65.7415 98.0001 72.9999 98.0001ZM72.9999 104.5C68.504 104.5 64.279 103.647 60.3249 101.941C56.3707 100.234 52.9311 97.9188 50.0061 94.9938C47.0811 92.0688 44.7655 88.6292 43.0593 84.6751C41.353 80.7209 40.4999 76.4959 40.4999 72.0001C40.4999 67.5042 41.353 63.2792 43.0593 59.3251C44.7655 55.3709 47.0811 51.9313 50.0061 49.0063C52.9311 46.0813 56.3707 43.7657 60.3249 42.0594C64.279 40.3532 68.504 39.5001 72.9999 39.5001C77.4957 39.5001 81.7207 40.3532 85.6749 42.0594C89.629 43.7657 93.0686 46.0813 95.9936 49.0063C98.9186 51.9313 101.234 55.3709 102.941 59.3251C104.647 63.2792 105.5 67.5042 105.5 72.0001C105.5 76.4959 104.647 80.7209 102.941 84.6751C101.234 88.6292 98.9186 92.0688 95.9936 94.9938C93.0686 97.9188 89.629 100.234 85.6749 101.941C81.7207 103.647 77.4957 104.5 72.9999 104.5ZM68.6124 46.4063C70.8874 50.198 73.9749 53.2449 77.8749 55.5469C81.7749 57.849 86.1082 59.0001 90.8749 59.0001C91.6332 59.0001 92.3645 58.9594 93.0686 58.8782C93.7728 58.7969 94.504 58.7021 95.2624 58.5938C92.9874 54.8021 89.8999 51.7553 85.9999 49.4532C82.0999 47.1511 77.7665 46.0001 72.9999 46.0001C72.2415 46.0001 71.5103 46.0407 70.8061 46.1219C70.102 46.2032 69.3707 46.298 68.6124 46.4063ZM48.3811 63.7938C51.1436 62.223 53.554 60.1917 55.6124 57.7001C57.6707 55.2084 59.2145 52.4188 60.2436 49.3313C57.4811 50.9021 55.0707 52.9334 53.0124 55.4251C50.954 57.9167 49.4103 60.7063 48.3811 63.7938Z" fill="#3D348B" style="fill:#3D348B;fill:color(display-p3 0.2392 0.2039 0.5451);fill-opacity:1;"/>
</g>
</svg>
