<svg width="192" height="192" viewBox="0 0 192 192" fill="none" xmlns="http://www.w3.org/2000/svg">
<rect width="192" height="192" fill="white" style="fill:white;fill-opacity:1;"/>
<path d="M149.8 93.8684V51.7826C149.8 51.1412 148.986 50.8452 148.566 51.3632L102.607 108.818C102.237 109.262 102.558 109.928 103.15 109.928H136.355C137.243 109.928 138.106 109.509 138.649 108.818L149.134 95.694C149.578 95.2006 149.8 94.5345 149.8 93.8684Z" fill="#0F1923" style="fill:#0F1923;fill:color(display-p3 0.0588 0.0980 0.1373);fill-opacity:1;"/>
<path d="M42.2416 95.7186L76.7786 138.89C77.346 139.581 78.1847 140 79.0728 140H112.278C112.845 140 113.19 139.334 112.82 138.89L42.8337 51.3632C42.4389 50.8452 41.6002 51.1412 41.6002 51.7826V93.8684C41.6002 94.5345 41.8222 95.2006 42.2416 95.7186Z" fill="#0F1923" style="fill:#0F1923;fill:color(display-p3 0.0588 0.0980 0.1373);fill-opacity:1;"/>
<path d="M146.223 108.103H145.557V107.881H147.16V108.103H146.494V109.953H146.223V108.103ZM147.53 107.881H147.949L148.616 109.558L149.257 107.881H149.676V109.953H149.405V108.127L148.665 109.953H148.517L147.777 108.127V109.953H147.505L147.53 107.881Z" fill="#0F1923" style="fill:#0F1923;fill:color(display-p3 0.0588 0.0980 0.1373);fill-opacity:1;"/>
</svg>
