<svg width="1920" height="1080" viewBox="0 0 1920 1080" fill="none" xmlns="http://www.w3.org/2000/svg">
<path d="M1500 0H420V1080H1500V0Z" fill="#FF4655" style="fill:#FF4655;fill:color(display-p3 1.0000 0.2745 0.3333);fill-opacity:1;"/>
<path d="M1179.3 532.9V362.3C1179.3 359.7 1176 358.5 1174.3 360.6L988 593.5C986.5 595.3 987.8 598 990.2 598H1124.8C1128.4 598 1131.9 596.3 1134.1 593.5L1176.6 540.3C1178.4 538.3 1179.3 535.6 1179.3 532.9Z" fill="#0F1923" style="fill:#0F1923;fill:color(display-p3 0.0588 0.0980 0.1373);fill-opacity:1;"/>
<path d="M743.3 540.4L883.3 715.4C885.6 718.2 889 719.9 892.6 719.9H1027.2C1029.5 719.9 1030.9 717.2 1029.4 715.4L745.7 360.6C744.1 358.5 740.7 359.7 740.7 362.3V532.9C740.7 535.6 741.6 538.3 743.3 540.4Z" fill="#0F1923" style="fill:#0F1923;fill:color(display-p3 0.0588 0.0980 0.1373);fill-opacity:1;"/>
<path d="M1164.8 590.6H1162.1V589.7H1168.6V590.6H1165.9V598.1H1164.8V590.6ZM1170.1 589.7H1171.8L1174.5 596.5L1177.1 589.7H1178.8V598.1H1177.7V590.7L1174.7 598.1H1174.1L1171.1 590.7V598.1H1170L1170.1 589.7Z" fill="#0F1923" style="fill:#0F1923;fill:color(display-p3 0.0588 0.0980 0.1373);fill-opacity:1;"/>
</svg>
