<svg width="75" height="75" viewBox="0 0 75 75" fill="none" xmlns="http://www.w3.org/2000/svg">
<rect width="75" height="75" fill="#F4A001" style="fill:#F4A001;fill:color(display-p3 0.9569 0.6275 0.0039);fill-opacity:1;"/>
<mask id="mask0_266_300" style="mask-type:alpha" maskUnits="userSpaceOnUse" x="19" y="18" width="38" height="38">
<rect x="19" y="18" width="38" height="38" fill="#D9D9D9" style="fill:#D9D9D9;fill:color(display-p3 0.8510 0.8510 0.8510);fill-opacity:1;"/>
</mask>
<g mask="url(#mask0_266_300)">
<path d="M33.25 40.5625C32.6958 40.5625 32.2274 40.3712 31.8448 39.9886C31.4621 39.6059 31.2708 39.1375 31.2708 38.5834C31.2708 38.0292 31.4621 37.5608 31.8448 37.1781C32.2274 36.7955 32.6958 36.6042 33.25 36.6042C33.8042 36.6042 34.2726 36.7955 34.6552 37.1781C35.0378 37.5608 35.2292 38.0292 35.2292 38.5834C35.2292 39.1375 35.0378 39.6059 34.6552 39.9886C34.2726 40.3712 33.8042 40.5625 33.25 40.5625ZM42.75 40.5625C42.1958 40.5625 41.7274 40.3712 41.3448 39.9886C40.9621 39.6059 40.7708 39.1375 40.7708 38.5834C40.7708 38.0292 40.9621 37.5608 41.3448 37.1781C41.7274 36.7955 42.1958 36.6042 42.75 36.6042C43.3042 36.6042 43.7726 36.7955 44.1552 37.1781C44.5378 37.5608 44.7292 38.0292 44.7292 38.5834C44.7292 39.1375 44.5378 39.6059 44.1552 39.9886C43.7726 40.3712 43.3042 40.5625 42.75 40.5625ZM38 49.6667C41.5361 49.6667 44.5312 48.4396 46.9854 45.9854C49.4396 43.5313 50.6667 40.5361 50.6667 37C50.6667 36.3667 50.6271 35.7531 50.5479 35.1594C50.4687 34.5656 50.3236 33.9917 50.1125 33.4375C49.5583 33.5695 49.0042 33.6684 48.45 33.7344C47.8958 33.8004 47.3153 33.8334 46.7083 33.8334C44.3069 33.8334 42.0375 33.3188 39.9 32.2896C37.7625 31.2604 35.9417 29.8222 34.4375 27.975C33.593 30.0334 32.3858 31.8212 30.8156 33.3386C29.2455 34.8559 27.418 35.9972 25.3333 36.7625V37C25.3333 40.5361 26.5604 43.5313 29.0146 45.9854C31.4687 48.4396 34.4639 49.6667 38 49.6667ZM38 52.8334C35.8097 52.8334 33.7514 52.4177 31.825 51.5865C29.8986 50.7552 28.2229 49.6271 26.7979 48.2021C25.3729 46.7771 24.2448 45.1014 23.4135 43.175C22.5823 41.2486 22.1667 39.1903 22.1667 37C22.1667 34.8097 22.5823 32.7514 23.4135 30.825C24.2448 28.8986 25.3729 27.2229 26.7979 25.7979C28.2229 24.3729 29.8986 23.2448 31.825 22.4136C33.7514 21.5823 35.8097 21.1667 38 21.1667C40.1903 21.1667 42.2486 21.5823 44.175 22.4136C46.1014 23.2448 47.7771 24.3729 49.2021 25.7979C50.6271 27.2229 51.7552 28.8986 52.5864 30.825C53.4177 32.7514 53.8333 34.8097 53.8333 37C53.8333 39.1903 53.4177 41.2486 52.5864 43.175C51.7552 45.1014 50.6271 46.7771 49.2021 48.2021C47.7771 49.6271 46.1014 50.7552 44.175 51.5865C42.2486 52.4177 40.1903 52.8334 38 52.8334ZM35.8625 24.5313C36.9708 26.3785 38.475 27.8629 40.375 28.9844C42.275 30.1059 44.3861 30.6667 46.7083 30.6667C47.0778 30.6667 47.434 30.6469 47.7771 30.6073C48.1201 30.5677 48.4764 30.5215 48.8458 30.4688C47.7375 28.6215 46.2333 27.1372 44.3333 26.0156C42.4333 24.8941 40.3222 24.3334 38 24.3334C37.6305 24.3334 37.2743 24.3531 36.9312 24.3927C36.5882 24.4323 36.2319 24.4785 35.8625 24.5313ZM26.0062 33.0021C27.3521 32.2368 28.5264 31.2472 29.5292 30.0334C30.5319 28.8195 31.284 27.4604 31.7854 25.9563C30.4396 26.7215 29.2653 27.7111 28.2625 28.925C27.2597 30.1389 26.5076 31.4979 26.0062 33.0021Z" fill="#3D348B" style="fill:#3D348B;fill:color(display-p3 0.2392 0.2039 0.5451);fill-opacity:1;"/>
</g>
</svg>
