<svg width="75" height="75" viewBox="0 0 75 75" fill="none" xmlns="http://www.w3.org/2000/svg">
<rect width="75" height="75" rx="37.5" fill="#F27103" style="fill:#F27103;fill:color(display-p3 0.9490 0.4431 0.0118);fill-opacity:1;"/>
<path d="M17.655 42.5V32.7H19.979V40.379H23.913V42.5H17.655ZM29.6988 42.71C28.9475 42.71 28.2522 42.5817 27.6128 42.325C26.9782 42.0637 26.4252 41.702 25.9538 41.24C25.4825 40.778 25.1162 40.2367 24.8548 39.616C24.5982 38.9953 24.4698 38.3233 24.4698 37.6C24.4698 36.872 24.5982 36.1977 24.8548 35.577C25.1162 34.9563 25.4825 34.415 25.9538 33.953C26.4252 33.491 26.9782 33.1317 27.6128 32.875C28.2522 32.6183 28.9475 32.49 29.6988 32.49C30.4548 32.49 31.1502 32.6207 31.7848 32.882C32.4195 33.1433 32.9725 33.5073 33.4438 33.974C33.9152 34.4407 34.2792 34.9843 34.5358 35.605C34.7972 36.221 34.9278 36.886 34.9278 37.6C34.9278 38.3233 34.7972 38.9953 34.5358 39.616C34.2792 40.2367 33.9152 40.778 33.4438 41.24C32.9725 41.702 32.4195 42.0637 31.7848 42.325C31.1502 42.5817 30.4548 42.71 29.6988 42.71ZM29.6988 40.526C30.1048 40.526 30.4758 40.4583 30.8118 40.323C31.1525 40.1877 31.4488 39.9917 31.7008 39.735C31.9528 39.4783 32.1465 39.1703 32.2818 38.811C32.4218 38.447 32.4918 38.0433 32.4918 37.6C32.4918 37.0027 32.3705 36.4847 32.1278 36.046C31.8898 35.6073 31.5585 35.269 31.1338 35.031C30.7138 34.7883 30.2355 34.667 29.6988 34.667C29.2975 34.667 28.9265 34.737 28.5858 34.877C28.2452 35.0123 27.9488 35.2083 27.6968 35.465C27.4495 35.7217 27.2558 36.0297 27.1158 36.389C26.9758 36.7483 26.9058 37.152 26.9058 37.6C26.9058 38.1927 27.0272 38.7083 27.2698 39.147C27.5125 39.5857 27.8438 39.9263 28.2638 40.169C28.6885 40.407 29.1668 40.526 29.6988 40.526ZM41.6823 42.71C40.9263 42.71 40.2146 42.5933 39.5473 42.36C38.8799 42.1267 38.2919 41.7907 37.7833 41.352C37.2793 40.9087 36.8826 40.372 36.5933 39.742C36.3039 39.112 36.1593 38.4003 36.1593 37.607C36.1593 36.8183 36.2969 36.1113 36.5723 35.486C36.8523 34.856 37.2396 34.317 37.7343 33.869C38.2289 33.421 38.8029 33.0803 39.4563 32.847C40.1096 32.609 40.8119 32.49 41.5633 32.49C41.9086 32.49 42.2703 32.518 42.6483 32.574C43.0263 32.6253 43.4113 32.7187 43.8033 32.854C44.1953 32.9893 44.5803 33.1807 44.9583 33.428L43.9923 35.227C43.6563 35.0077 43.2993 34.8467 42.9213 34.744C42.5433 34.6367 42.1419 34.583 41.7173 34.583C41.2273 34.583 40.7863 34.653 40.3943 34.793C40.0023 34.933 39.6686 35.136 39.3933 35.402C39.1226 35.6633 38.9149 35.9807 38.7703 36.354C38.6256 36.7273 38.5533 37.1497 38.5533 37.621C38.5533 38.2977 38.6979 38.8647 38.9873 39.322C39.2766 39.7747 39.6686 40.1177 40.1633 40.351C40.6579 40.5797 41.2109 40.694 41.8223 40.694C42.0649 40.694 42.2959 40.673 42.5153 40.631C42.7346 40.589 42.9283 40.54 43.0963 40.484V38.748H41.0943V36.9H45.1333V41.898C44.8393 42.066 44.4893 42.2107 44.0833 42.332C43.6819 42.4533 43.2689 42.5467 42.8443 42.612C42.4243 42.6773 42.0369 42.71 41.6823 42.71ZM51.9293 42.71C51.178 42.71 50.4826 42.5817 49.8433 42.325C49.2086 42.0637 48.6556 41.702 48.1843 41.24C47.713 40.778 47.3466 40.2367 47.0853 39.616C46.8286 38.9953 46.7003 38.3233 46.7003 37.6C46.7003 36.872 46.8286 36.1977 47.0853 35.577C47.3466 34.9563 47.713 34.415 48.1843 33.953C48.6556 33.491 49.2086 33.1317 49.8433 32.875C50.4826 32.6183 51.178 32.49 51.9293 32.49C52.6853 32.49 53.3806 32.6207 54.0153 32.882C54.65 33.1433 55.203 33.5073 55.6743 33.974C56.1456 34.4407 56.5096 34.9843 56.7663 35.605C57.0276 36.221 57.1583 36.886 57.1583 37.6C57.1583 38.3233 57.0276 38.9953 56.7663 39.616C56.5096 40.2367 56.1456 40.778 55.6743 41.24C55.203 41.702 54.65 42.0637 54.0153 42.325C53.3806 42.5817 52.6853 42.71 51.9293 42.71ZM51.9293 40.526C52.3353 40.526 52.7063 40.4583 53.0423 40.323C53.383 40.1877 53.6793 39.9917 53.9313 39.735C54.1833 39.4783 54.377 39.1703 54.5123 38.811C54.6523 38.447 54.7223 38.0433 54.7223 37.6C54.7223 37.0027 54.601 36.4847 54.3583 36.046C54.1203 35.6073 53.789 35.269 53.3643 35.031C52.9443 34.7883 52.466 34.667 51.9293 34.667C51.528 34.667 51.157 34.737 50.8163 34.877C50.4756 35.0123 50.1793 35.2083 49.9273 35.465C49.68 35.7217 49.4863 36.0297 49.3463 36.389C49.2063 36.7483 49.1363 37.152 49.1363 37.6C49.1363 38.1927 49.2576 38.7083 49.5003 39.147C49.743 39.5857 50.0743 39.9263 50.4943 40.169C50.919 40.407 51.3973 40.526 51.9293 40.526Z" fill="#1E1E1E" style="fill:#1E1E1E;fill:color(display-p3 0.1176 0.1176 0.1176);fill-opacity:1;"/>
</svg>
