<svg width="284" height="22" viewBox="0 0 284 22" fill="none" xmlns="http://www.w3.org/2000/svg">
<path d="M4 18C4 18 15.2336 4 29.0909 4C42.9482 4 40.3245 18 54.1818 18C68.0391 18 65.4154 4 79.2727 4C93.1301 4 90.5063 18 104.364 18C118.221 18 115.597 4 129.455 4C143.312 4 140.688 18 154.545 18C168.403 18 165.779 4 179.636 4C193.494 4 190.87 18 204.727 18C218.585 18 215.961 4 229.818 4C243.676 4 241.052 18 254.909 18C268.766 18 280 4 280 4" stroke="#F27103" style="stroke:#F27103;stroke:color(display-p3 0.9490 0.4431 0.0118);stroke-opacity:1;" stroke-width="7" stroke-linecap="round"/>
</svg>
